<?xml version="1.0" encoding="utf-8"?>
<!-- Generator: Adobe Illustrator 26.3.1, SVG Export Plug-In . SVG Version: 6.00 Build 0)  -->
<svg version="1.1" id="레이어_1" xmlns="http://www.w3.org/2000/svg" xmlns:xlink="http://www.w3.org/1999/xlink" x="0px"
	 y="0px" viewBox="0 0 56.7 56.7" style="enable-background:new 0 0 56.7 56.7;" xml:space="preserve">
<style type="text/css">
	.st0{display:none;}
	.st1{display:inline;fill:none;stroke:#000000;stroke-width:1.5;stroke-miterlimit:10;}
	.st2{fill:none;stroke:#000000;stroke-width:1.5;stroke-miterlimit:10;}
</style>
<g id="레이어_1_00000087411132183941988730000006939468321129920912_" class="st0">
	<path class="st1" d="M11.5,14c3.2,4.3,9.5,7.2,16.7,7.2c7,0,13.2-2.8,16.4-6.9"/>
	<path class="st1" d="M44.7,42.5c-3.2-4.2-9.4-7-16.5-7c-7.3,0-13.6,3-16.8,7.3"/>
</g>
<g id="레이어_2_00000057141276282215866090000014416692286476259201_">
	<circle class="st2" cx="28.1" cy="28.5" r="21.9"/>
</g>
<g id="레이어_3" class="st0">
	<line class="st1" x1="49.9" y1="28.5" x2="6.2" y2="28.5"/>
</g>
<g id="레이어_4" class="st0">
	<line class="st1" x1="6.2" y1="28.5" x2="49.9" y2="28.5"/>
	<polyline class="st1" points="20.5,10.9 15.3,17.4 6.4,28.3 15.3,39.3 20.5,45.8 	"/>
</g>
<g id="레이어_1_00000060724134272070981980000008378072589100221578_">
	<path class="st2" d="M43.3,11.9c-4.3,3.2-7.2,9.5-7.2,16.7c0,7,2.8,13.2,6.9,16.4"/>
	<path class="st2" d="M14.8,45.1c4.2-3.2,7-9.4,7-16.5c0-7.3-3-13.6-7.3-16.8"/>
</g>
<g id="레이어_3_00000113319827940168060520000017425515174386957992_">
	<line class="st2" x1="28.8" y1="50.3" x2="28.8" y2="6.6"/>
</g>
</svg>
