<?xml version="1.0" encoding="utf-8"?>
<!-- Generator: Adobe Illustrator 26.3.1, SVG Export Plug-In . SVG Version: 6.00 Build 0)  -->
<svg version="1.1" id="레이어_1" xmlns="http://www.w3.org/2000/svg" xmlns:xlink="http://www.w3.org/1999/xlink" x="0px"
	 y="0px" viewBox="0 0 708.7 708.7" style="enable-background:new 0 0 708.7 708.7;" xml:space="preserve">
<style type="text/css">
	.st0{fill:#FFFFFF;}
</style>
<circle class="st0" cx="168.2" cy="549.1" r="31.5"/>
<path class="st0" d="M497.5,0c116.4,0,211.2,94.7,211.2,211.2v286c0,116.5-94.7,211.2-211.2,211.2H211.5
	C95,708.4,0.3,613.6,0.3,497.2v-286C0.3,94.7,95.1,0,211.5,0H497.5z M497.5,657c88.2,0,159.9-71.7,159.9-159.9V211.2
	c0-88.2-71.7-159.9-159.9-159.9h-286c-88.2,0-159.9,71.7-159.9,159.9v286c0,88.2,71.7,159.9,159.9,159.9L497.5,657L497.5,657z"/>
<path class="st0" d="M354.5,178.5c96.9,0,175.7,78.8,175.7,175.7s-78.8,175.7-175.7,175.7S178.8,451,178.8,354.2
	S257.6,178.5,354.5,178.5z M354.5,478.5c68.6,0,124.4-55.8,124.4-124.4s-55.8-124.4-124.4-124.4s-124.4,55.8-124.4,124.4
	S285.9,478.5,354.5,478.5z"/>
</svg>
